<svg height="512" viewBox="0 0 128 128" width="512" xmlns="http://www.w3.org/2000/svg"><g><path d="m73.94 75.69a1.742 1.742 0 0 1 -1.237-.512l-5.157-5.157a1.75 1.75 0 0 1 2.475-2.475l5.157 5.154a1.75 1.75 0 0 1 -1.238 2.99z" fill="#69b921"/><circle cx="50.442" cy="50.442" fill="#c7ddf7" r="25.938"/><path d="m101.447 101.447a7 7 0 0 1 -10.082-.2l-21.503-23.227 8.158-8.158 23.232 21.5a7 7 0 0 1 .195 10.085z" fill="#a8d03c"/><circle cx="50.442" cy="50.442" fill="#eaf2f9" r="18.341"/><path d="m39.163 52.191a1.749 1.749 0 0 1 -1.75-1.75 13.044 13.044 0 0 1 13.028-13.028 1.75 1.75 0 0 1 0 3.5 9.539 9.539 0 0 0 -9.528 9.528 1.749 1.749 0 0 1 -1.75 1.75z" fill="#fff"/></g></svg>